<svg width="26" height="26" viewBox="0 0 26 26" fill="none" xmlns="http://www.w3.org/2000/svg">
<path d="M22.6346 0.205078H2.74171C2.02227 0.205078 1.3323 0.486634 0.823573 0.987806C0.31485 1.48898 0.0290527 2.16871 0.0290527 2.87748L0.0290527 22.4751C0.0290527 23.1838 0.31485 23.8636 0.823573 24.3647C1.3323 24.8659 2.02227 25.1475 2.74171 25.1475H10.4982V16.6676H6.93786V12.6763H10.4982V9.6342C10.4982 6.174 12.5892 4.26267 15.7919 4.26267C17.3257 4.26267 18.9295 4.53214 18.9295 4.53214V7.92831H17.1623C15.4212 7.92831 14.8781 8.99282 14.8781 10.0846V12.6763H18.7651L18.1434 16.6676H14.8781V25.1475H22.6346C23.354 25.1475 24.044 24.8659 24.5527 24.3647C25.0614 23.8636 25.3472 23.1838 25.3472 22.4751V2.87748C25.3472 2.16871 25.0614 1.48898 24.5527 0.987806C24.044 0.486634 23.354 0.205078 22.6346 0.205078Z" fill="#918E9B"/>
</svg>
