<svg width="27" height="26" viewBox="0 0 27 26" fill="none" xmlns="http://www.w3.org/2000/svg">
<path d="M23.3766 0.703918H3.48375C1.98613 0.703918 0.771088 1.90093 0.771088 3.37632V22.9739C0.771088 24.4493 1.98613 25.6463 3.48375 25.6463H23.3766C24.8742 25.6463 26.0893 24.4493 26.0893 22.9739V3.37632C26.0893 1.90093 24.8742 0.703918 23.3766 0.703918ZM16.4424 22.0664C15.9676 22.1499 15.7925 21.8604 15.7925 21.621C15.7925 21.3204 15.8038 19.7837 15.8038 18.5422C15.8038 17.6737 15.5099 17.1225 15.1652 16.833C17.2562 16.6047 19.4602 16.3208 19.4602 12.7631C19.4602 11.7498 19.0929 11.2432 18.4938 10.5918C18.5899 10.3524 18.912 9.36695 18.3977 8.08642C17.6122 7.84702 15.8151 9.08301 15.8151 9.08301C15.0691 8.87701 14.2609 8.77123 13.4641 8.77123C12.6672 8.77123 11.8591 8.87701 11.1131 9.08301C11.1131 9.08301 9.31597 7.84702 8.53043 8.08642C8.01616 9.36138 8.33263 10.3468 8.43436 10.5918C7.83531 11.2432 7.55274 11.7498 7.55274 12.7631C7.55274 16.3041 9.66071 16.6047 11.7517 16.833C11.4805 17.0724 11.2374 17.4844 11.1527 18.0745C10.6158 18.3139 9.24251 18.7259 8.42306 17.3006C7.90878 16.421 6.98195 16.3486 6.98195 16.3486C6.06643 16.3375 6.91979 16.9165 6.91979 16.9165C7.53014 17.1949 7.95964 18.2638 7.95964 18.2638C8.50783 19.9174 11.1301 19.3606 11.1301 19.3606C11.1301 20.1345 11.1414 21.3927 11.1414 21.621C11.1414 21.8604 10.9718 22.1499 10.4915 22.0664C6.76155 20.836 4.15061 17.3396 4.15061 13.2531C4.15061 8.1421 8.11788 4.26155 13.3058 4.26155C18.4938 4.26155 22.6984 8.1421 22.6984 13.2531C22.7041 17.3396 20.1723 20.8416 16.4424 22.0664ZM10.8984 18.6647C10.791 18.6869 10.6893 18.6424 10.678 18.57C10.6667 18.4865 10.7401 18.4141 10.8475 18.3919C10.9549 18.3807 11.0566 18.4253 11.0679 18.4976C11.0849 18.57 11.0114 18.6424 10.8984 18.6647ZM10.3615 18.6146C10.3615 18.6869 10.2767 18.7482 10.1637 18.7482C10.0393 18.7593 9.95458 18.6981 9.95458 18.6146C9.95458 18.5422 10.0393 18.4809 10.1524 18.4809C10.2598 18.4698 10.3615 18.5311 10.3615 18.6146ZM9.58724 18.5533C9.56463 18.6257 9.45161 18.6591 9.35553 18.6257C9.24816 18.6034 9.17469 18.5199 9.19729 18.4475C9.2199 18.3752 9.33293 18.3418 9.429 18.364C9.54203 18.3974 9.6155 18.4809 9.58724 18.5533ZM8.89212 18.2527C8.84126 18.3139 8.73388 18.3028 8.64911 18.2193C8.56434 18.1469 8.54173 18.0411 8.59825 17.991C8.64911 17.9298 8.75649 17.9409 8.84126 18.0244C8.91473 18.0968 8.94298 18.2081 8.89212 18.2527ZM8.37784 17.746C8.32698 17.7794 8.23091 17.746 8.16874 17.6625C8.10658 17.579 8.10658 17.4844 8.16874 17.4454C8.23091 17.3953 8.32698 17.4343 8.37784 17.5178C8.44001 17.6013 8.44001 17.7015 8.37784 17.746ZM8.01051 17.206C7.95964 17.2561 7.87487 17.2283 7.81271 17.1726C7.75054 17.1002 7.73924 17.0167 7.7901 16.9777C7.84096 16.9276 7.92573 16.9555 7.9879 17.0111C8.05006 17.0835 8.06137 17.167 8.01051 17.206ZM7.63186 16.794C7.60926 16.8441 7.53579 16.8552 7.47362 16.8163C7.40016 16.7829 7.36625 16.7216 7.38885 16.6715C7.41146 16.6381 7.47362 16.6214 7.54709 16.6492C7.62056 16.6882 7.65447 16.7495 7.63186 16.794Z" fill="#918E9B"/>
</svg>
