<svg width="26" height="26" viewBox="0 0 26 26" fill="none" xmlns="http://www.w3.org/2000/svg">
<path d="M13.3118 9.70657C12.7157 9.70679 12.133 9.88115 11.6374 10.2076C11.1418 10.534 10.7556 10.9979 10.5277 11.5406C10.2997 12.0833 10.2401 12.6803 10.3566 13.2563C10.473 13.8323 10.7602 14.3614 11.1818 14.7766C11.6034 15.1918 12.1406 15.4745 12.7253 15.589C13.31 15.7035 13.916 15.6446 14.4668 15.4198C15.0176 15.195 15.4883 14.8144 15.8195 14.326C16.1506 13.8377 16.3274 13.2636 16.3274 12.6763C16.3268 11.8887 16.0089 11.1335 15.4434 10.5766C14.878 10.0198 14.1113 9.70687 13.3118 9.70657ZM20.3597 7.4239C20.2062 7.04077 19.9745 6.69279 19.6788 6.40154C19.3832 6.1103 19.03 5.882 18.6411 5.73082C17.4543 5.26928 14.6286 5.37283 13.3118 5.37283C11.9951 5.37283 9.1722 5.26538 7.98201 5.73082C7.59311 5.882 7.23989 6.1103 6.94425 6.40154C6.64862 6.69279 6.41689 7.04077 6.26343 7.4239C5.7955 8.59307 5.90005 11.3796 5.90005 12.6757C5.90005 13.9718 5.7955 16.755 6.26569 17.9281C6.41915 18.3112 6.65088 18.6592 6.94652 18.9505C7.24215 19.2417 7.59537 19.47 7.98427 19.6212C9.17106 20.0827 11.9968 19.9792 13.3141 19.9792C14.6314 19.9792 17.4532 20.0866 18.6433 19.6212C19.0322 19.47 19.3855 19.2417 19.6811 18.9505C19.9767 18.6592 20.2085 18.3112 20.3619 17.9281C20.8338 16.7589 20.7253 13.9724 20.7253 12.6763C20.7253 11.3802 20.8338 8.59753 20.3619 7.42446L20.3597 7.4239ZM13.3118 17.2416C12.3953 17.2416 11.4993 16.9739 10.7372 16.4722C9.97517 15.9706 9.3812 15.2576 9.03045 14.4234C8.67971 13.5892 8.58793 12.6712 8.76674 11.7856C8.94555 10.9 9.38691 10.0866 10.035 9.44809C10.6831 8.80961 11.5088 8.37481 12.4078 8.19865C13.3067 8.02249 14.2385 8.1129 15.0852 8.45844C15.932 8.80399 16.6558 9.38914 17.165 10.1399C17.6742 10.8907 17.946 11.7733 17.946 12.6763C17.9467 13.276 17.8273 13.87 17.5947 14.4242C17.3621 14.9785 17.0208 15.482 16.5903 15.9061C16.1598 16.3302 15.6487 16.6664 15.0861 16.8956C14.5235 17.1248 13.9206 17.2424 13.3118 17.2416ZM18.137 8.98503C17.923 8.98514 17.7138 8.92273 17.5359 8.80571C17.3579 8.68868 17.2192 8.52229 17.1372 8.32759C17.0553 8.13288 17.0338 7.9186 17.0755 7.71186C17.1171 7.50511 17.2201 7.31518 17.3714 7.1661C17.5226 7.01701 17.7153 6.91546 17.9252 6.8743C18.135 6.83314 18.3525 6.85421 18.5502 6.93485C18.7479 7.01549 18.9169 7.15207 19.0358 7.32732C19.1546 7.50257 19.2181 7.70862 19.2181 7.91941C19.2187 8.05938 19.1912 8.19809 19.1373 8.32759C19.0833 8.45708 19.004 8.57481 18.9037 8.67402C18.8035 8.77323 18.6844 8.85197 18.5532 8.90572C18.422 8.95947 18.2813 8.98718 18.1392 8.98725L18.137 8.98503ZM23.2583 0.205078H3.3654C2.64596 0.205078 1.95598 0.486634 1.44726 0.987806C0.938538 1.48898 0.65274 2.16871 0.65274 2.87748L0.65274 22.4751C0.65274 23.1838 0.938538 23.8636 1.44726 24.3647C1.95598 24.8659 2.64596 25.1475 3.3654 25.1475H23.2583C23.9777 25.1475 24.6677 24.8659 25.1764 24.3647C25.6851 23.8636 25.9709 23.1838 25.9709 22.4751V2.87748C25.9709 2.16871 25.6851 1.48898 25.1764 0.987806C24.6677 0.486634 23.9777 0.205078 23.2583 0.205078ZM22.2907 16.3508C22.2178 17.7778 21.8872 19.0422 20.8299 20.0811C19.7725 21.1199 18.4902 21.4523 17.0434 21.5203C15.5509 21.6032 11.0761 21.6032 9.58362 21.5203C8.13517 21.4484 6.85626 21.1222 5.79719 20.0811C4.73812 19.0399 4.40526 17.775 4.33631 16.3508C4.2521 14.8799 4.2521 10.471 4.33631 9.00173C4.40921 7.57478 4.73586 6.3104 5.79719 5.2715C6.85852 4.23261 8.14082 3.90413 9.58362 3.8362C11.0761 3.75325 15.5509 3.75325 17.0434 3.8362C18.4919 3.90802 19.7747 4.23428 20.8299 5.2754C21.885 6.31652 22.2218 7.58146 22.2907 9.00841C22.3749 10.4738 22.3749 14.8788 22.2907 16.3508Z" fill="#918E9B"/>
</svg>
