<svg width="26" height="26" viewBox="0 0 26 26" fill="none" xmlns="http://www.w3.org/2000/svg">
<path d="M23.011 0.205078H3.11818C1.62056 0.205078 0.405518 1.40209 0.405518 2.87748V22.4751C0.405518 23.9505 1.62056 25.1475 3.11818 25.1475H23.011C24.5087 25.1475 25.7237 23.9505 25.7237 22.4751V2.87748C25.7237 1.40209 24.5087 0.205078 23.011 0.205078ZM20.2475 9.04627C20.2588 9.20216 20.2588 9.36362 20.2588 9.51951C20.2588 14.3465 16.5289 19.9085 9.71334 19.9085C7.61103 19.9085 5.6613 19.3072 4.0224 18.2716C4.32192 18.305 4.61014 18.3162 4.91532 18.3162C6.65029 18.3162 8.24398 17.7371 9.51554 16.7573C7.88794 16.7238 6.52031 15.6716 6.05125 14.224C6.62204 14.3076 7.13631 14.3076 7.72405 14.1572C6.02864 13.8176 4.75708 12.3478 4.75708 10.5718V10.5272C5.24875 10.8 5.82519 10.9671 6.42989 10.9893C5.92151 10.6562 5.50475 10.2042 5.2168 9.67381C4.92886 9.14339 4.77869 8.55098 4.77969 7.94947C4.77969 7.27024 4.96053 6.64668 5.28266 6.10663C7.10805 8.32249 9.84897 9.77004 12.9233 9.92593C12.3977 7.4484 14.2797 5.43853 16.5402 5.43853C17.6083 5.43853 18.5691 5.87836 19.2472 6.591C20.0836 6.43511 20.8861 6.1289 21.5982 5.71134C21.3213 6.5576 20.7392 7.27024 19.9706 7.7212C20.7166 7.64326 21.44 7.43726 22.1068 7.15332C21.6038 7.88266 20.9709 8.52849 20.2475 9.04627Z" fill="#918E9B"/>
</svg>
